<svg width="160" height="49" viewBox="0 0 160 47" fill="none" xmlns="http://www.w3.org/2000/svg">
<path d="M9.24661 46.9975C8.87454 46.9975 8.51145 46.9927 8.1423 46.9843C7.37757 46.9743 6.61463 46.9073 5.85973 46.7839C5.15583 46.662 4.47393 46.4351 3.83654 46.1107C3.205 45.7891 2.62897 45.3673 2.13054 44.8616C1.6249 44.3619 1.20393 43.7823 0.88431 43.1458C0.561171 42.5051 0.33754 41.8184 0.221206 41.1096C0.0955754 40.3479 0.0276042 39.5778 0.0178782 38.8058C0.0101359 38.5466 0 37.6839 0 37.6839V9.30034C0 9.30034 0.0107953 8.45081 0.0179392 8.20123C0.0272518 7.43044 0.0948278 6.66149 0.220082 5.90102C0.336631 5.19025 0.560436 4.50156 0.883749 3.85881C1.20219 3.22273 1.62083 2.64269 2.12342 2.14116C2.62546 1.63487 3.20332 1.21094 3.83594 0.884857C4.47187 0.561567 5.15248 0.336272 5.85496 0.216521C6.61233 0.0918897 7.37792 0.024508 8.1453 0.0149413L9.24721 -6.10352e-05H134.747L135.862 0.0155434C136.622 0.0246347 137.381 0.0914152 138.131 0.215317C138.841 0.33657 139.529 0.563437 140.172 0.888457C141.439 1.54562 142.47 2.58531 143.121 3.86181C143.439 4.50013 143.66 5.18319 143.775 5.88783C143.901 6.65453 143.972 7.42953 143.987 8.20663C143.99 8.5546 143.99 8.92837 143.99 9.30034C144 9.7611 144 10.1997 144 10.6418V36.3567C144 36.8031 144 37.2387 143.99 37.6778C143.99 38.0774 143.99 38.4434 143.986 38.8202C143.971 39.5834 143.902 40.3446 143.777 41.0975C143.663 41.8115 143.441 42.5036 143.117 43.1495C142.796 43.7791 142.377 44.3537 141.877 44.8521C141.378 45.3605 140.801 45.7847 140.168 46.1084C139.527 46.4352 138.84 46.663 138.131 46.7839C137.377 46.908 136.613 46.975 135.849 46.9843C135.491 46.9927 135.116 46.9975 134.753 46.9975L133.429 46.9999L9.24661 46.9975Z" fill="black"/>
<path fill-rule="evenodd" clip-rule="evenodd" d="M90.3359 34.6295C88.3322 34.6295 86.8659 33.646 86.6972 32.1481L84.3655 32.148C84.5127 34.8801 86.7917 36.6085 90.1671 36.6085C93.7747 36.6085 96.0429 34.8386 96.0429 32.0126C96.0429 29.8032 94.7454 28.5583 91.6226 27.8254L89.9457 27.4168C87.9839 26.9357 87.1819 26.3073 87.1819 25.2394C87.1819 23.8995 88.4375 22.9789 90.2724 22.9789C92.1074 22.9789 93.363 23.8888 93.5006 25.3962H95.8C95.7258 22.7901 93.521 20.9999 90.3048 20.9999C87.0551 20.9999 84.7665 22.7901 84.7665 25.3962C84.7665 27.5011 86.064 28.7983 88.8589 29.4683L90.8314 29.9398C92.804 30.4209 93.6371 31.123 93.6371 32.2954C93.6371 33.646 92.2558 34.6295 90.3359 34.6295ZM50.6522 32.2741H44.8506L43.4573 36.3568H41L46.4952 21.2518H49.0483L54.5435 36.3568H52.0442L50.6522 32.2741ZM45.4515 30.3901H50.0502L47.7832 23.7642H47.7197L45.4515 30.3901ZM61.7803 36.472C64.5656 36.472 66.4113 34.2732 66.4113 30.851C66.4113 27.4382 64.5547 25.2288 61.7384 25.2288C60.2891 25.1824 58.9316 25.9305 58.205 27.1757H58.1631V25.344H55.9583V39.9999H58.236V34.5452H58.2888C58.9844 35.7984 60.3406 36.5467 61.7803 36.472ZM64.07 30.851C64.07 28.6214 62.909 27.1555 61.1375 27.1555C59.3971 27.1555 58.2265 28.6523 58.2265 30.851C58.2265 33.0699 59.3971 34.556 61.1375 34.556C62.909 34.556 64.07 33.1008 64.07 30.851ZM73.9939 36.472C76.7792 36.472 78.6249 34.2732 78.6249 30.851C78.6249 27.4382 76.7685 25.2288 73.952 25.2288C72.5028 25.1824 71.1452 25.9305 70.4186 27.1757H70.3767V25.344H68.1719V39.9999H70.4497V34.5452H70.5024C71.1981 35.7984 72.5542 36.5467 73.9939 36.472ZM76.2837 30.851C76.2837 28.6214 75.1226 27.1555 73.3512 27.1555C71.6108 27.1555 70.4402 28.6523 70.4402 30.851C70.4402 33.0699 71.6108 34.556 73.3512 34.556C75.1227 34.556 76.2837 33.1008 76.2837 30.851ZM100.959 22.7378V25.344H103.069V27.1342H100.959V33.2053C100.959 34.1485 101.381 34.588 102.309 34.588C102.56 34.5837 102.81 34.5662 103.058 34.5357V36.3151C102.641 36.3925 102.217 36.4275 101.793 36.4197C99.5464 36.4197 98.6703 35.5822 98.6703 33.4464V27.1342H97.0568V25.344H98.6702V22.7378H100.959ZM109.554 25.2086C106.348 25.2086 104.291 27.386 104.291 30.851C104.291 34.3255 106.327 36.4934 109.554 36.4934C112.782 36.4934 114.818 34.3255 114.818 30.851C114.818 27.3859 112.772 25.2086 109.554 25.2086ZM112.497 30.851C112.497 28.4741 111.4 27.0712 109.554 27.0712C107.708 27.0712 106.612 28.4848 106.612 30.851C106.612 33.2374 107.708 34.6296 109.554 34.6296C111.4 34.6296 112.497 33.2374 112.497 30.851ZM118.869 25.344H116.696L116.696 36.3567H118.974V29.8247C118.898 29.1638 119.117 28.5031 119.574 28.016C120.03 27.5288 120.678 27.264 121.348 27.2909C121.694 27.2809 122.04 27.327 122.371 27.4275V25.3131C122.115 25.2562 121.853 25.2279 121.591 25.2288C120.339 25.1813 119.224 26.0118 118.922 27.2185H118.869V25.344ZM132.873 33.1222C132.567 35.1214 130.605 36.4934 128.095 36.4934C124.867 36.4934 122.863 34.3469 122.863 30.9033C122.863 27.4489 124.877 25.2086 127.999 25.2086C131.069 25.2086 133 27.3016 133 30.6407V31.4152H125.162V31.5518C125.089 32.3717 125.374 33.1833 125.946 33.7801C126.517 34.3769 127.319 34.7014 128.148 34.6712C129.253 34.7739 130.295 34.144 130.71 33.1222L132.873 33.1222ZM130.721 29.8354H125.173C125.171 29.0918 125.469 28.3783 125.999 27.8535C126.53 27.3286 127.25 27.0359 127.999 27.0403C128.742 27.0245 129.459 27.3171 129.975 27.8476C130.492 28.3782 130.762 29.0986 130.721 29.8354Z" fill="white"/>
<g filter="url(#filter0_d)">
<path fill-rule="evenodd" clip-rule="evenodd" d="M71.7941 8.99994H72.8866V16.8771H71.7941V8.99994ZM48.2379 10.3989C47.5693 9.67627 46.6194 9.29861 45.6495 9.36984H43V16.8772H45.6495C47.8344 16.8772 49.101 15.4985 49.101 13.1001C49.2233 12.1128 48.9065 11.1215 48.2379 10.3989ZM45.5223 15.8155H44.1393V10.4307H45.5223C46.2117 10.3916 46.8821 10.6698 47.3502 11.1893C47.8184 11.7089 48.0351 12.4153 47.9413 13.1154C48.0425 13.8185 47.8288 14.5308 47.3595 15.0546C46.8903 15.5784 46.2154 15.8579 45.5223 15.8155ZM50.3879 14.0419C50.293 13.0264 50.7688 12.0436 51.6157 11.5057C52.4626 10.9678 53.5342 10.9678 54.3811 11.5057C55.2281 12.0436 55.7038 13.0264 55.6089 14.0419C55.7056 15.0585 55.2303 16.0431 54.3826 16.5822C53.535 17.1212 52.4618 17.1212 51.6142 16.5822C50.7665 16.0431 50.2912 15.0585 50.3879 14.0419ZM53.0002 12.0956C53.9462 12.0956 54.4852 12.8138 54.4852 14.0419H54.4852C54.4852 15.2749 53.9462 15.9924 53.0002 15.9924C52.0506 15.9924 51.5164 15.2798 51.5164 14.0419C51.5164 12.8138 52.0506 12.0956 53.0002 12.0956ZM62.549 16.8771H61.4158L60.2717 12.7044H60.1852L59.046 16.8771H57.9235L56.3976 11.2116H57.5057L58.4973 15.5347H58.579L59.7171 11.2116H60.7651L61.9032 15.5347H61.9896L62.9764 11.2116H64.0689L62.549 16.8771ZM66.4039 11.2116H65.3522L65.3522 16.8771H66.4447V13.5627C66.4055 13.1856 66.5291 12.8099 66.7832 12.5339C67.0372 12.258 67.3964 12.1093 67.7664 12.127C68.5744 12.127 68.9609 12.5797 68.9609 13.4902V16.877H70.0534V13.2094C70.1335 12.6555 69.9631 12.0943 69.5904 11.6844C69.2176 11.2745 68.683 11.0602 68.1374 11.1022C67.4328 11.0436 66.7694 11.449 66.4855 12.1116H66.4039V11.2116ZM75.6332 11.5056C74.7862 12.0435 74.3104 13.0263 74.4052 14.0419C74.3086 15.0585 74.784 16.0432 75.6317 16.5822C76.4795 17.1212 77.5526 17.1212 78.4003 16.5822C79.248 16.0432 79.7234 15.0585 79.6268 14.0419C79.7217 13.0263 79.2458 12.0435 78.3988 11.5056C77.5519 10.9677 76.4802 10.9677 75.6332 11.5056ZM78.5025 14.0419C78.5025 12.8138 77.9635 12.0956 77.0175 12.0956C76.0679 12.0956 75.5337 12.8138 75.5337 14.0419C75.5337 15.2798 76.068 15.9924 77.0175 15.9924C77.9635 15.9924 78.5026 15.2749 78.5025 14.0419ZM82.8358 13.5836C81.5188 13.6671 80.7769 14.2551 80.7769 15.2749C80.7788 15.7584 80.9804 16.2186 81.3319 16.5416C81.6835 16.8647 82.1522 17.0205 82.6221 16.9704C83.2924 17.0021 83.9276 16.6623 84.2848 16.0809H84.3712V16.8771H85.4229V13.0061C85.4229 11.8093 84.6401 11.1023 83.2524 11.1023C81.9966 11.1023 81.1023 11.7264 80.9906 12.6995H82.0482C82.1695 12.299 82.5921 12.0698 83.2019 12.0698C83.9487 12.0698 84.3352 12.4077 84.3352 13.0061V13.4951L82.8358 13.5836ZM84.3352 14.7908V14.3171L82.9834 14.4056C82.2211 14.4578 81.8754 14.7232 81.8754 15.2226C81.8754 15.7325 82.3075 16.0293 82.9019 16.0293C83.2537 16.0657 83.6049 15.9545 83.8751 15.721C84.1453 15.4875 84.3113 15.1518 84.3352 14.7908ZM89.1564 11.1176C87.7579 11.1176 86.8587 12.2517 86.8587 14.0419C86.8587 15.8364 87.7482 16.9705 89.1564 16.9704C89.8704 16.9974 90.54 16.6166 90.8948 15.9819H90.9812V16.8771H92.028V8.99994H90.9356V12.1116H90.8539C90.5241 11.4716 89.8626 11.0843 89.1564 11.1176ZM87.9872 14.0419C87.9872 15.2435 88.5406 15.9666 89.4662 15.9666C90.387 15.9666 90.956 15.2331 90.956 14.0468C90.956 12.866 90.381 12.1221 89.4662 12.1221C88.5466 12.1221 87.9871 12.85 87.9871 14.0419H87.9872ZM97.7757 11.5057C96.9288 12.0436 96.453 13.0264 96.548 14.0419C96.4512 15.0585 96.9266 16.0431 97.7742 16.5822C98.6219 17.1212 99.695 17.1212 100.543 16.5822C101.39 16.0431 101.866 15.0585 101.769 14.0419C101.864 13.0264 101.388 12.0436 100.541 11.5057C99.6943 10.9678 98.6226 10.9678 97.7757 11.5057ZM100.645 14.0419C100.645 12.8138 100.106 12.0956 99.1603 12.0956C98.2107 12.0956 97.6765 12.8138 97.6765 14.0419C97.6765 15.2798 98.2107 15.9924 99.1603 15.9924C100.106 15.9924 100.645 15.2749 100.645 14.0419ZM104.286 11.2116H103.235V16.8771H104.327V13.5627C104.288 13.1856 104.412 12.8099 104.666 12.5339C104.92 12.258 105.279 12.1093 105.649 12.127C106.457 12.127 106.843 12.5797 106.843 13.4902V16.877H107.936V13.2094C108.016 12.6555 107.846 12.0943 107.473 11.6844C107.1 11.2745 106.566 11.0602 106.02 11.1022C105.315 11.0436 104.652 11.449 104.368 12.1116H104.286V11.2116ZM114.109 9.80106V11.2374H115.308V12.1792H114.109V15.0924C114.109 15.6859 114.348 15.9457 114.892 15.9457C115.031 15.9453 115.17 15.9367 115.308 15.9199V16.8513C115.112 16.8872 114.913 16.9063 114.714 16.9084C113.499 16.9084 113.015 16.471 113.015 15.3787V12.1791H112.137V11.2373H113.015V9.80106H114.109ZM117.883 8.99994H116.8L116.801 16.877H117.893V13.5682C117.859 13.1794 117.995 12.7952 118.264 12.5183C118.532 12.2414 118.907 12.1 119.287 12.1319C120.059 12.1319 120.47 12.5902 120.47 13.4951V16.8771H121.564V13.2193C121.636 12.6682 121.465 12.1127 121.096 11.7043C120.728 11.2959 120.2 11.0769 119.658 11.1071C118.942 11.0477 118.267 11.4536 117.97 12.122H117.883V8.99994ZM127.934 15.3474C127.628 16.416 126.617 17.1065 125.535 16.9864C124.797 17.0064 124.088 16.6932 123.595 16.1301C123.103 15.567 122.877 14.8108 122.978 14.0621C122.88 13.3114 123.105 12.554 123.595 11.9862C124.084 11.4183 124.791 11.0958 125.531 11.1022C127.071 11.1022 128 12.1792 128 13.9583V14.3484H124.091V14.4111C124.057 14.8315 124.197 15.2473 124.478 15.5563C124.758 15.8653 125.153 16.0388 125.565 16.0342C126.1 16.0998 126.62 15.8285 126.882 15.3473L127.934 15.3474ZM126.887 13.5215H124.091C124.086 13.1309 124.236 12.7547 124.505 12.4784C124.775 12.202 125.143 12.049 125.525 12.0539C125.901 12.045 126.264 12.1994 126.523 12.4789C126.783 12.7584 126.915 13.137 126.887 13.5215Z" fill="white"/>
</g>
<path fill-rule="evenodd" clip-rule="evenodd" d="M27.3669 9.99994C27.4871 11.5675 26.9906 13.12 25.9829 14.328C25.0052 15.5421 23.5238 16.2415 21.9635 16.2255C21.8643 14.7031 22.3752 13.2037 23.3838 12.0577C24.4051 10.8961 25.8273 10.1614 27.3669 9.99994ZM32.3013 19.2103C30.5065 20.3121 29.4021 22.255 29.375 24.3585C29.3775 26.7383 30.8049 28.886 33 29.813C32.5778 31.1824 31.9415 32.4765 31.1145 33.6474C30.0038 35.3063 28.8394 36.9269 26.9911 36.9569C26.1121 36.9771 25.5188 36.7247 24.9005 36.4618C24.2556 36.1874 23.5835 35.9016 22.5319 35.9016C21.4166 35.9016 20.7145 36.1966 20.0373 36.4812C19.4521 36.7271 18.8856 36.9652 18.0871 36.9983C16.3269 37.0634 14.9817 35.2277 13.8307 33.5844C11.5302 30.2285 9.73884 24.1269 12.1404 19.9752C13.2682 17.9517 15.3768 16.6677 17.6948 16.5929C18.6931 16.5724 19.651 16.9566 20.4909 17.2934C21.1331 17.551 21.7064 17.7809 22.1758 17.7809C22.5884 17.7809 23.1456 17.5601 23.795 17.3028C24.8179 16.8974 26.0696 16.4014 27.3451 16.535C29.3272 16.597 31.1639 17.5884 32.3013 19.2103Z" fill="white"/>
<defs>
<filter id="filter0_d" x="39" y="8.99994" width="93" height="16" filterUnits="userSpaceOnUse" color-interpolation-filters="sRGB">
<feFlood flood-opacity="0" result="BackgroundImageFix"/>
<feColorMatrix in="SourceAlpha" type="matrix" values="0 0 0 0 0 0 0 0 0 0 0 0 0 0 0 0 0 0 127 0"/>
<feOffset dy="4"/>
<feGaussianBlur stdDeviation="2"/>
<feColorMatrix type="matrix" values="0 0 0 0 0 0 0 0 0 0 0 0 0 0 0 0 0 0 0.25 0"/>
<feBlend mode="normal" in2="BackgroundImageFix" result="effect1_dropShadow"/>
<feBlend mode="normal" in="SourceGraphic" in2="effect1_dropShadow" result="shape"/>
</filter>
</defs>
</svg>
