<svg width="147" height="47" viewBox="0 0 160 49" fill="none" xmlns="http://www.w3.org/2000/svg">
<rect y="-6.10352e-05" width="160" height="47" rx="5" fill="black"/>
<path fill-rule="evenodd" clip-rule="evenodd" d="M58.4073 28.4898V30.7126H63.6962C63.6133 31.7596 63.1818 32.7475 62.4719 33.5159C61.4019 34.6153 59.9212 35.2073 58.395 35.146C55.1495 35.146 52.5184 32.4921 52.5184 29.2184C52.5184 25.9446 55.1495 23.2907 58.395 23.2907C59.886 23.2662 61.3257 23.8391 62.3985 24.8838L63.9533 23.3154C62.4902 21.821 60.4895 20.9879 58.4073 21.0061C55.4432 20.8898 52.6536 22.4185 51.1373 24.9901C49.6209 27.5617 49.6209 30.764 51.1373 33.3356C52.6536 35.9071 55.4432 37.4358 58.4073 37.3195C60.5275 37.4161 62.5855 36.5831 64.0513 35.0349C65.3339 33.6134 66.0188 31.7447 65.9612 29.8235C65.9651 29.3554 65.9241 28.8881 65.8387 28.428L58.4073 28.4898ZM71.9847 26.872C69.1126 26.8788 66.7892 29.2317 66.7937 32.1287C66.7982 35.0257 69.1289 37.3711 72.001 37.3689C74.8731 37.3666 77.2002 35.0175 77.2002 32.1205C77.2203 30.718 76.6752 29.3675 75.6897 28.378C74.7042 27.3886 73.3627 26.8451 71.9724 26.872H71.9847ZM78.2041 32.1368C78.1951 29.2415 80.5124 26.8857 83.3828 26.872C84.7731 26.8451 86.1146 27.3886 87.1001 28.378C88.0856 29.3675 88.6307 30.718 88.6106 32.1205C88.6105 35.0159 86.2859 37.3643 83.4154 37.3688C80.545 37.3733 78.2131 35.0322 78.2041 32.1368ZM80.3123 33.5016C80.8714 34.6821 82.089 35.3978 83.3828 35.3066C84.1949 35.2876 84.9649 34.9385 85.5182 34.3386C86.0714 33.7387 86.361 32.9388 86.3211 32.1205C86.318 30.8122 85.5223 29.6389 84.3148 29.1617C83.1072 28.6844 81.7331 29.0003 80.8497 29.9582C79.9664 30.916 79.7533 32.3212 80.3123 33.5016ZM68.906 33.5111C69.469 34.6908 70.6902 35.403 71.9847 35.3066H71.9724C72.7845 35.2876 73.5545 34.9385 74.1078 34.3386C74.661 33.7387 74.9506 32.9388 74.9107 32.1205C74.9072 30.8112 74.11 29.6374 72.9009 29.1612C71.6918 28.685 70.3169 29.0034 69.4349 29.9639C68.5528 30.9244 68.343 32.3314 68.906 33.5111ZM109.424 26.872C111.453 26.9474 113.226 28.2789 113.88 30.2187L114.137 30.7744L107.171 33.6765C107.607 34.6795 108.608 35.3112 109.693 35.2695C110.741 35.2722 111.713 34.7187 112.252 33.8123L114.027 35.0472C113.06 36.5062 111.432 37.3783 109.693 37.3689C108.31 37.3893 106.979 36.8417 106.004 35.8519C105.03 34.862 104.496 33.5151 104.526 32.1205C104.442 30.7577 104.92 29.4205 105.848 28.4262C106.776 27.432 108.07 26.8694 109.424 26.872ZM106.779 31.9723C106.729 31.2006 106.989 30.4411 107.5 29.865C108.011 29.2888 108.731 28.9445 109.497 28.9097C110.304 28.856 111.065 29.2933 111.431 30.0211L106.779 31.9723ZM103.412 37.0602H101.123V21.6236H103.412V37.0602ZM97.3765 28.0452H97.2908C96.5929 27.2582 95.5952 26.8089 94.5484 26.8103C91.7694 26.9462 89.5855 29.2585 89.5855 32.0649C89.5855 34.8713 91.7694 37.1836 94.5484 37.3195C95.5986 37.3373 96.6028 36.8851 97.2908 36.0846H97.3643V36.8379C97.3643 38.8508 96.2991 39.9252 94.5851 39.9252C93.4175 39.8976 92.3823 39.1608 91.9651 38.0604L89.9695 38.9002C90.738 40.7857 92.5641 42.012 94.5851 41.9998C97.2663 41.9998 99.4823 40.4068 99.4823 36.5291V27.1808H97.3765V28.0452ZM94.7527 35.3062L94.7565 35.3066H94.7443L94.7527 35.3062ZM96.8157 34.3159C96.2903 34.9156 95.5452 35.2732 94.7527 35.3062C93.1175 35.1589 91.864 33.7768 91.864 32.1205C91.864 30.4628 93.1195 29.0799 94.7565 28.9344C95.5475 28.9753 96.2887 29.3367 96.8119 29.9365C97.3351 30.5363 97.5961 31.3238 97.5356 32.1205C97.6031 32.9207 97.343 33.714 96.8157 34.3159ZM124.605 21.6236H119.132V37.0602H121.422V31.2066H124.617C126.396 31.3355 128.096 30.4515 129.025 28.9158C129.953 27.3801 129.953 25.4501 129.025 23.9144C128.096 22.3787 126.396 21.4947 124.617 21.6236H124.605ZM121.409 29.0331H124.605L124.654 29.0702C126.104 29.0702 127.28 27.8842 127.28 26.4213C127.28 24.9583 126.104 23.7724 124.654 23.7724H121.409V29.0331ZM138.721 26.8103C137.017 26.7076 135.416 27.6341 134.644 29.169L136.676 30.0211C137.086 29.26 137.902 28.8144 138.758 28.885C139.345 28.8158 139.935 28.9874 140.395 29.3613C140.856 29.7351 141.148 30.2799 141.206 30.8732V31.0337C140.471 30.641 139.651 30.4374 138.819 30.441C136.627 30.441 134.411 31.6759 134.411 33.9111C134.455 34.874 134.883 35.7781 135.598 36.4177C136.313 37.0574 137.254 37.3782 138.207 37.3071C139.381 37.3922 140.508 36.8239 141.145 35.8252H141.218V37.0602H143.422V31.1202C143.422 28.4157 141.39 26.8473 138.782 26.8473L138.721 26.8103ZM136.652 33.9605C136.652 34.8867 137.692 35.2695 138.439 35.2695L138.5 35.3066C139.88 35.2726 141.023 34.2191 141.182 32.8367C140.546 32.4791 139.828 32.2999 139.1 32.318C137.95 32.318 136.652 32.7256 136.652 33.9605ZM151.453 27.1808L148.833 33.874H148.76L146.042 27.1808H143.594L147.67 36.5415L145.344 41.7405H147.732L154 27.1808H151.453ZM133.163 37.0602H130.873V21.6236H133.163V37.0602Z" fill="white"/>
<path fill-rule="evenodd" clip-rule="evenodd" d="M85.4147 9.16718C83.9577 10.7585 83.9577 13.2466 85.4147 14.8379C86.9177 16.3802 89.3458 16.3802 90.8488 14.8379C92.312 13.2492 92.312 10.756 90.8488 9.16718C90.13 8.4201 89.152 7.99994 88.1317 7.99994C87.1115 7.99994 86.1334 8.4201 85.4147 9.16718ZM57.5771 14.8634C58.211 14.1806 58.5458 13.2593 58.5034 12.3148C58.5034 12.1225 58.4869 11.9306 58.4539 11.7413H54.86V12.6588H57.54C57.5217 13.2368 57.3025 13.7886 56.9225 14.2135C56.076 15.0578 54.8204 15.2937 53.7398 14.8115C52.6592 14.3293 51.9658 13.2236 51.9824 12.0089C51.9555 11.2051 52.2472 10.4247 52.7901 9.8476C53.3331 9.27051 54.0805 8.9466 54.86 8.95055C55.6355 8.90682 56.3857 9.24196 56.8855 9.85532L57.54 9.17993C57.2238 8.80471 56.826 8.51212 56.3791 8.32613C55.8991 8.11416 55.3821 8.00575 54.86 8.00754C53.8356 7.98399 52.8476 8.39918 52.1306 9.15444C51.0271 10.3005 50.697 12.0174 51.2929 13.5113C51.8887 15.0052 53.2944 15.9849 54.86 15.9976C55.8807 16.0351 56.8687 15.6227 57.5771 14.8634ZM60.8252 9.12895H64.1598V8.18595H59.8372V15.8319H64.1598V14.8889H60.8252V12.4677H63.8634V11.5502H60.8252V9.12895ZM68.2107 15.8319H67.2597V9.12895H65.1849V8.18595H70.3349V9.12895H68.2107V15.8319ZM74.9169 8.18595H73.9659V15.8319H74.9169V8.18595ZM79.1407 15.8319H78.1897V9.12895H76.1149V8.18595H81.2032V9.12895H79.1407V15.8319ZM86.1186 14.2008C87.2318 15.3446 89.0317 15.3446 90.1448 14.2008C91.2381 12.9573 91.2381 11.0606 90.1448 9.81709C89.0317 8.6733 87.2318 8.6733 86.1186 9.81709C85.0254 11.0606 85.0254 12.9573 86.1186 14.2008ZM94.4427 8.18595H93.2818V15.8319H94.2451V9.60045L98.012 15.8319H99V8.18595H98.049V14.1371L94.4427 8.18595Z" fill="white"/>
<path d="M85.4147 14.8379L85.3409 14.9055L85.3431 14.9077L85.4147 14.8379ZM85.4147 9.16718L85.3426 9.09783L85.3409 9.09965L85.4147 9.16718ZM90.8488 14.8379L90.9204 14.9078L90.9224 14.9057L90.8488 14.8379ZM90.8488 9.16718L90.9224 9.09942L90.9209 9.09785L90.8488 9.16718ZM58.5034 12.3148L58.4032 12.3147L58.4035 12.3193L58.5034 12.3148ZM57.5771 14.8634L57.6502 14.9317L57.6504 14.9315L57.5771 14.8634ZM58.4539 11.7413L58.5525 11.7242L58.538 11.6413H58.4539V11.7413ZM54.86 11.7413V11.6413H54.76V11.7413H54.86ZM54.86 12.6588H54.76V12.7588H54.86V12.6588ZM57.54 12.6588L57.64 12.662L57.6432 12.5588H57.54V12.6588ZM56.9225 14.2135L56.9932 14.2844L56.9971 14.2802L56.9225 14.2135ZM53.7398 14.8115L53.699 14.9028L53.7398 14.8115ZM51.9824 12.0089L52.0825 12.0103L52.0823 12.0056L51.9824 12.0089ZM52.7901 9.8476L52.7173 9.77907H52.7173L52.7901 9.8476ZM54.86 8.95055L54.8595 9.05073L54.8656 9.05039L54.86 8.95055ZM56.8855 9.85532L56.8079 9.91849L56.879 10.0057L56.9573 9.92492L56.8855 9.85532ZM57.54 9.17993L57.6118 9.24952L57.6747 9.18461L57.6165 9.11549L57.54 9.17993ZM56.3791 8.32613L56.3387 8.41762L56.3407 8.41845L56.3791 8.32613ZM54.86 8.00754L54.8577 8.10755L54.8604 8.10754L54.86 8.00754ZM52.1306 9.15444L52.2026 9.2238L52.2031 9.22329L52.1306 9.15444ZM51.2929 13.5113L51.2 13.5483L51.2929 13.5113ZM54.86 15.9976L54.8637 15.8976L54.8608 15.8976L54.86 15.9976ZM64.1598 9.12895V9.22895H64.2598V9.12895H64.1598ZM60.8252 9.12895V9.02895H60.7252V9.12895H60.8252ZM64.1598 8.18595H64.2598V8.08595H64.1598V8.18595ZM59.8372 8.18595V8.08595H59.7372V8.18595H59.8372ZM59.8372 15.8319H59.7372V15.9319H59.8372V15.8319ZM64.1598 15.8319V15.9319H64.2598V15.8319H64.1598ZM64.1598 14.8889H64.2598V14.7889H64.1598V14.8889ZM60.8252 14.8889H60.7252V14.9889H60.8252V14.8889ZM60.8252 12.4677V12.3677H60.7252V12.4677H60.8252ZM63.8634 12.4677V12.5677H63.9634V12.4677H63.8634ZM63.8634 11.5502H63.9634V11.4502H63.8634V11.5502ZM60.8252 11.5502H60.7252V11.6502H60.8252V11.5502ZM67.2597 15.8319H67.1597V15.9319H67.2597V15.8319ZM68.2107 15.8319V15.9319H68.3107V15.8319H68.2107ZM67.2597 9.12895H67.3597V9.02895H67.2597V9.12895ZM65.1849 9.12895H65.0849V9.22895H65.1849V9.12895ZM65.1849 8.18595V8.08595H65.0849V8.18595H65.1849ZM70.3349 8.18595H70.4349V8.08595H70.3349V8.18595ZM70.3349 9.12895V9.22895H70.4349V9.12895H70.3349ZM68.2107 9.12895V9.02895H68.1107V9.12895H68.2107ZM73.9659 8.18595V8.08595H73.8659V8.18595H73.9659ZM74.9169 8.18595H75.0169V8.08595H74.9169V8.18595ZM73.9659 15.8319H73.8659V15.9319H73.9659V15.8319ZM74.9169 15.8319V15.9319H75.0169V15.8319H74.9169ZM78.1897 15.8319H78.0897V15.9319H78.1897V15.8319ZM79.1407 15.8319V15.9319H79.2407V15.8319H79.1407ZM78.1897 9.12895H78.2897V9.02895H78.1897V9.12895ZM76.1149 9.12895H76.0149V9.22895H76.1149V9.12895ZM76.1149 8.18595V8.08595H76.0149V8.18595H76.1149ZM81.2032 8.18595H81.3032V8.08595H81.2032V8.18595ZM81.2032 9.12895V9.22895H81.3032V9.12895H81.2032ZM79.1407 9.12895V9.02895H79.0407V9.12895H79.1407ZM90.1448 14.2008L90.2166 14.2706L90.2199 14.2668L90.1448 14.2008ZM86.1186 14.2008L86.0434 14.2669L86.047 14.2705L86.1186 14.2008ZM90.1448 9.81709L90.22 9.75098L90.2165 9.74735L90.1448 9.81709ZM86.1186 9.81709L86.0469 9.74726L86.0435 9.75106L86.1186 9.81709ZM93.2818 8.18595V8.08595H93.1818V8.18595H93.2818ZM94.4427 8.18595L94.5283 8.13412L94.4991 8.08595H94.4427V8.18595ZM93.2818 15.8319H93.1818V15.9319H93.2818V15.8319ZM94.2451 15.8319V15.9319H94.3451V15.8319H94.2451ZM94.2451 9.60045L94.3307 9.54872L94.1451 9.24172V9.60045H94.2451ZM98.012 15.8319L97.9264 15.8837L97.9556 15.9319H98.012V15.8319ZM99 15.8319V15.9319H99.1V15.8319H99ZM99 8.18595H99.1V8.08595H99V8.18595ZM98.049 8.18595V8.08595H97.949V8.18595H98.049ZM98.049 14.1371L97.9635 14.1889L98.149 14.495V14.1371H98.049ZM85.4884 14.7704C84.0664 13.2173 84.0664 10.7878 85.4884 9.23471L85.3409 9.09965C83.8489 10.7292 83.8489 13.2759 85.3409 14.9055L85.4884 14.7704ZM90.7772 14.7682C89.3134 16.2701 86.9501 16.2701 85.4863 14.7682L85.3431 14.9077C86.8853 16.4902 89.3781 16.4902 90.9204 14.9077L90.7772 14.7682ZM90.7752 9.23493C92.2032 10.7854 92.2032 13.2197 90.7752 14.7702L90.9224 14.9057C92.4208 13.2786 92.4208 10.7265 90.9224 9.09944L90.7752 9.23493ZM88.1317 8.09994C89.1243 8.09994 90.0765 8.50867 90.7767 9.23652L90.9209 9.09785C90.1836 8.33153 89.1797 7.89994 88.1317 7.89994V8.09994ZM85.4867 9.23652C86.187 8.50867 87.1392 8.09994 88.1317 8.09994V7.89994C87.0838 7.89994 86.0799 8.33153 85.3426 9.09785L85.4867 9.23652ZM58.4035 12.3193C58.4447 13.2375 58.1192 14.1325 57.5038 14.7954L57.6504 14.9315C58.3028 14.2286 58.6469 13.2812 58.6032 12.3103L58.4035 12.3193ZM58.3554 11.7585C58.3874 11.9421 58.4034 12.1282 58.4034 12.3147L58.6034 12.3148C58.6034 12.1168 58.5864 11.9191 58.5525 11.7242L58.3554 11.7585ZM54.86 11.8413H58.4539V11.6413H54.86V11.8413ZM54.96 12.6588V11.7413H54.76V12.6588H54.96ZM57.54 12.5588H54.86V12.7588H57.54V12.5588ZM56.9971 14.2802C57.393 13.8375 57.6209 13.263 57.64 12.662L57.4401 12.6557C57.4225 13.2105 57.2121 13.7397 56.848 14.1469L56.9971 14.2802ZM53.699 14.9028C54.8179 15.4022 56.1177 15.1575 56.9931 14.2843L56.8519 14.1427C56.0343 14.9582 54.8228 15.1853 53.7805 14.7202L53.699 14.9028ZM51.8824 12.0076C51.8653 13.2608 52.5807 14.4038 53.699 14.9028L53.7805 14.7202C52.7377 14.2548 52.0664 13.1864 52.0824 12.0103L51.8824 12.0076ZM52.7173 9.77907C52.1558 10.3759 51.8547 11.1823 51.8824 12.0123L52.0823 12.0056C52.0563 11.2279 52.3386 10.4735 52.863 9.91612L52.7173 9.77907ZM54.8605 8.85055C54.0528 8.84646 53.2789 9.18215 52.7173 9.77907L52.863 9.91612C53.3873 9.35888 54.1083 9.04674 54.8595 9.05055L54.8605 8.85055ZM56.963 9.79215C56.4434 9.1545 55.6625 8.80514 54.8544 8.85071L54.8656 9.05039C55.6084 9.00851 56.328 9.32941 56.8079 9.91849L56.963 9.79215ZM57.4682 9.11033L56.8137 9.78573L56.9573 9.92492L57.6118 9.24952L57.4682 9.11033ZM56.3407 8.41845C56.7726 8.59823 57.1575 8.88117 57.4636 9.24436L57.6165 9.11549C57.2902 8.72825 56.8794 8.42601 56.4175 8.2338L56.3407 8.41845ZM54.8604 8.10754C55.3684 8.1058 55.8715 8.21128 56.3387 8.4176L56.4195 8.23465C55.9267 8.01705 55.3959 7.9057 54.8597 7.90754L54.8604 8.10754ZM52.2031 9.22329C52.901 8.48811 53.8621 8.08462 54.8577 8.10752L54.8623 7.90757C53.8092 7.88335 52.7941 8.31024 52.0581 9.08559L52.2031 9.22329ZM51.3857 13.4742C50.8042 12.0163 51.1268 10.3411 52.2026 9.2238L52.0586 9.08508C50.9275 10.2598 50.5898 12.0184 51.2 13.5483L51.3857 13.4742ZM54.8608 15.8976C53.3373 15.8853 51.9671 14.9317 51.3857 13.4742L51.2 13.5483C51.8103 15.0786 53.2515 16.0846 54.8592 16.0976L54.8608 15.8976ZM57.504 14.7952C56.815 15.5337 55.8549 15.9341 54.8637 15.8977L54.8563 16.0975C55.9066 16.1361 56.9224 15.7117 57.6502 14.9317L57.504 14.7952ZM64.1598 9.02895H60.8252V9.22895H64.1598V9.02895ZM64.0598 8.18595V9.12895H64.2598V8.18595H64.0598ZM59.8372 8.28595H64.1598V8.08595H59.8372V8.28595ZM59.9372 15.8319V8.18595H59.7372V15.8319H59.9372ZM64.1598 15.7319H59.8372V15.9319H64.1598V15.7319ZM64.0598 14.8889V15.8319H64.2598V14.8889H64.0598ZM60.8252 14.9889H64.1598V14.7889H60.8252V14.9889ZM60.7252 12.4677V14.8889H60.9252V12.4677H60.7252ZM63.8634 12.3677H60.8252V12.5677H63.8634V12.3677ZM63.7634 11.5502V12.4677H63.9634V11.5502H63.7634ZM60.8252 11.6502H63.8634V11.4502H60.8252V11.6502ZM60.7252 9.12895V11.5502H60.9252V9.12895H60.7252ZM67.2597 15.9319H68.2107V15.7319H67.2597V15.9319ZM67.1597 9.12895V15.8319H67.3597V9.12895H67.1597ZM65.1849 9.22895H67.2597V9.02895H65.1849V9.22895ZM65.0849 8.18595V9.12895H65.2849V8.18595H65.0849ZM70.3349 8.08595H65.1849V8.28595H70.3349V8.08595ZM70.4349 9.12895V8.18595H70.2349V9.12895H70.4349ZM68.2107 9.22895H70.3349V9.02895H68.2107V9.22895ZM68.3107 15.8319V9.12895H68.1107V15.8319H68.3107ZM73.9659 8.28595H74.9169V8.08595H73.9659V8.28595ZM74.0659 15.8319V8.18595H73.8659V15.8319H74.0659ZM74.9169 15.7319H73.9659V15.9319H74.9169V15.7319ZM74.8169 8.18595V15.8319H75.0169V8.18595H74.8169ZM78.1897 15.9319H79.1407V15.7319H78.1897V15.9319ZM78.0897 9.12895V15.8319H78.2897V9.12895H78.0897ZM76.1149 9.22895H78.1897V9.02895H76.1149V9.22895ZM76.0149 8.18595V9.12895H76.2149V8.18595H76.0149ZM81.2032 8.08595H76.1149V8.28595H81.2032V8.08595ZM81.3032 9.12895V8.18595H81.1032V9.12895H81.3032ZM79.1407 9.22895H81.2032V9.02895H79.1407V9.22895ZM79.2407 15.8319V9.12895H79.0407V15.8319H79.2407ZM90.0732 14.131C88.9993 15.2345 87.2642 15.2345 86.1903 14.131L86.047 14.2705C87.1994 15.4547 89.0641 15.4547 90.2165 14.2705L90.0732 14.131ZM90.0697 9.88312C91.1298 11.0889 91.1298 12.929 90.0697 14.1348L90.2199 14.2668C91.3464 12.9855 91.3464 11.0324 90.2199 9.75106L90.0697 9.88312ZM86.1903 9.88684C87.2642 8.78338 88.9993 8.78338 90.0732 9.88684L90.2165 9.74735C89.0641 8.56321 87.1994 8.56321 86.047 9.74735L86.1903 9.88684ZM86.1937 14.1348C85.1337 12.929 85.1337 11.0889 86.1937 9.88312L86.0435 9.75106C84.9171 11.0324 84.9171 12.9855 86.0435 14.2668L86.1937 14.1348ZM93.2818 8.28595H94.4427V8.08595H93.2818V8.28595ZM93.3818 15.8319V8.18595H93.1818V15.8319H93.3818ZM94.2451 15.7319H93.2818V15.9319H94.2451V15.7319ZM94.1451 9.60045V15.8319H94.3451V9.60045H94.1451ZM98.0976 15.7802L94.3307 9.54872L94.1596 9.65219L97.9264 15.8837L98.0976 15.7802ZM99 15.7319H98.012V15.9319H99V15.7319ZM98.9 8.18595V15.8319H99.1V8.18595H98.9ZM98.049 8.28595H99V8.08595H98.049V8.28595ZM98.149 14.1371V8.18595H97.949V14.1371H98.149ZM94.3572 8.23777L97.9635 14.1889L98.1345 14.0852L94.5283 8.13412L94.3572 8.23777Z" fill="white"/>
<path d="M12.7856 9.66458C12.3814 10.1459 12.1774 10.7622 12.2152 11.3877V38.6123C12.1774 39.2378 12.3814 39.854 12.7856 40.3354L12.8724 40.4215L28.236 25.1846V24.8277L12.8724 9.57843L12.7856 9.66458Z" fill="url(#paint0_linear)"/>
<path d="M33.32 30.2676L28.236 25.1845V24.8276L33.32 19.7322L33.4316 19.7938L39.52 23.2276C41.256 24.1999 41.256 25.7999 39.52 26.7845L33.4564 30.2061L33.32 30.2676Z" fill="url(#paint1_linear)"/>
<path d="M33.4688 30.1938L28.236 24.9999L12.7856 40.3353C13.5156 40.9723 14.599 41.0033 15.3648 40.4092L33.4812 30.1938" fill="url(#paint2_linear)"/>
<path d="M33.4688 19.8061L15.3524 9.59073C14.5866 8.9966 13.5032 9.02762 12.7732 9.66457L28.236 25L33.4688 19.8061Z" fill="url(#paint3_linear)"/>
<path opacity="0.2" d="M33.32 30.083L15.3524 40.2369C14.6171 40.7825 13.6077 40.7825 12.8724 40.2369L12.7856 40.323L12.8724 40.4092C13.6063 40.9589 14.6185 40.9589 15.3524 40.4092L33.4688 30.1938L33.32 30.083Z" fill="black"/>
<path opacity="0.12" fill-rule="evenodd" clip-rule="evenodd" d="M33.32 30.083L39.52 26.5999C40.1607 26.286 40.6187 25.6951 40.76 24.9999C40.6961 25.7684 40.2232 26.4444 39.52 26.7722L33.4316 30.1938L33.32 30.083ZM12.2125 38.6795C12.233 39.221 12.4332 39.7433 12.7856 40.163L12.8724 40.2615L12.7856 40.3476C12.3933 39.8804 12.1896 39.286 12.2125 38.6795ZM12.2125 38.6795C12.2132 38.6612 12.2141 38.6429 12.2152 38.6246V38.4399C12.2104 38.52 12.2095 38.6 12.2125 38.6795Z" fill="black"/>
<path opacity="0.25" d="M15.3524 9.763L39.52 23.3999C40.1607 23.7138 40.6187 24.3047 40.76 24.9999C40.6961 24.2314 40.2232 23.5555 39.52 23.2276L15.3524 9.59069C13.6164 8.61838 12.2028 9.43069 12.2028 11.3999V11.5845C12.24 9.603 13.6288 8.79069 15.3524 9.763Z" fill="white"/>
<defs>
<linearGradient id="paint0_linear" x1="21.5068" y1="-8.91877" x2="-3.06964" y2="-2.33358" gradientUnits="userSpaceOnUse">
<stop stop-color="#00A0FF"/>
<stop offset="0.01" stop-color="#00A1FF"/>
<stop offset="0.26" stop-color="#00BEFF"/>
<stop offset="0.51" stop-color="#00D2FF"/>
<stop offset="0.76" stop-color="#00DFFF"/>
<stop offset="1" stop-color="#00E3FF"/>
</linearGradient>
<linearGradient id="paint1_linear" x1="41.7892" y1="12.4457" x2="11.7936" y2="12.4457" gradientUnits="userSpaceOnUse">
<stop stop-color="#FFE000"/>
<stop offset="0.41" stop-color="#FFBD00"/>
<stop offset="0.78" stop-color="#FFA500"/>
<stop offset="1" stop-color="#FF9C00"/>
</linearGradient>
<linearGradient id="paint2_linear" x1="12.3316" y1="17.0338" x2="-7.21215" y2="50.1548" gradientUnits="userSpaceOnUse">
<stop stop-color="#FF3A44"/>
<stop offset="1" stop-color="#C31162"/>
</linearGradient>
<linearGradient id="paint3_linear" x1="0.720423" y1="5.42581" x2="9.44383" y2="20.2159" gradientUnits="userSpaceOnUse">
<stop stop-color="#32A071"/>
<stop offset="0.07" stop-color="#2DA771"/>
<stop offset="0.48" stop-color="#15CF74"/>
<stop offset="0.8" stop-color="#06E775"/>
<stop offset="1" stop-color="#00F076"/>
</linearGradient>
</defs>
</svg>
